<?xml version="1.0" standalone="no"?><!DOCTYPE svg PUBLIC "-//W3C//DTD SVG 1.1//EN" "http://www.w3.org/Graphics/SVG/1.1/DTD/svg11.dtd"><svg t="1550483905368" class="icon" style="" viewBox="0 0 1024 1024" version="1.1" xmlns="http://www.w3.org/2000/svg" p-id="1107" xmlns:xlink="http://www.w3.org/1999/xlink" width="32" height="32"><defs><style type="text/css"></style></defs><path d="M905.539005 957.941492 640.317481 692.718945c-65.136509 52.734038-139.584082 79.100546-223.342718 79.100546-97.714486 0-181.076078-34.509978-250.093988-103.528911C97.863888 599.321788 63.349817 515.90596 63.349817 418.194544c0-97.712439 34.514071-181.078125 103.531981-250.097058 69.01791-68.970838 152.378479-103.528911 250.093988-103.528911s181.076078 34.55705 250.093988 103.528911c69.028143 69.018933 103.531981 152.383596 103.531981 250.097058 0 83.753519-26.364461 158.201092-79.102592 223.342718l265.221524 265.218454L905.539005 957.941492zM193.633069 641.537262c62.039985 62.039985 136.486534 93.059466 223.342718 93.059466s161.302733-31.019481 223.342718-93.059466c62.039985-61.990866 93.059466-136.438439 93.059466-223.342718 0-86.85516-31.019481-161.302733-93.059466-223.342718-62.039985-61.990866-136.486534-93.059466-223.342718-93.059466s-161.302733 31.068599-223.342718 93.059466c-62.039985 62.039985-93.059466 136.486534-93.059466 223.342718C100.573603 505.098823 131.593084 579.546396 193.633069 641.537262z" p-id="1108" fill="#8a8a8a"></path></svg>