<?xml version="1.0" standalone="no"?><!DOCTYPE svg PUBLIC "-//W3C//DTD SVG 1.1//EN" "http://www.w3.org/Graphics/SVG/1.1/DTD/svg11.dtd"><svg t="1544604330347" class="icon" style="" viewBox="0 0 1024 1024" version="1.1" xmlns="http://www.w3.org/2000/svg" p-id="922" xmlns:xlink="http://www.w3.org/1999/xlink" width="200" height="200"><defs><style type="text/css"></style></defs><path d="M316 464.3v-0.6M833 895c33.9 0 61.7-27.8 61.7-61.7V191.6c-0.1-33.9-27.9-61.6-61.8-61.6H191.4c-33.9 0-61.7 27.8-61.7 61.7v641.6c0 33.9 27.8 61.7 61.7 61.7H833z m-666.8-61.7V191.7c0-13.7 11.5-25.2 25.2-25.2h641.5c13.7 0 25.2 11.5 25.3 25.2v641.6c0 13.7-11.5 25.2-25.2 25.2H191.4c-13.7 0-25.2-11.5-25.2-25.2z" p-id="923" fill="#8a8a8a"></path></svg>